<svg version="1.1" id="Layer_1" xmlns="http://www.w3.org/2000/svg" xmlns:xlink="http://www.w3.org/1999/xlink" x="0px" y="0px"
	 width="100%" viewBox="0 0 500 500" enable-background="new 0 0 500 500" xml:space="preserve">
<path fill="#F83700" opacity="1.000000" stroke="none" 
	d="
M501.000000,123.000000 
	C501.000000,248.880081 501.000000,374.760162 501.000000,501.000000 
	C473.980164,501.000000 446.958740,501.000000 419.542542,500.616547 
	C422.509644,483.186066 425.904694,466.145477 429.225739,449.090485 
	C434.394562,422.546539 439.539978,395.997986 444.640411,369.440826 
	C446.831970,358.029785 448.886108,346.592377 451.466309,335.095032 
	C459.523315,335.023102 467.116760,335.023102 474.704895,335.023102 
	C474.704895,323.363220 474.704895,312.303986 474.704895,300.833405 
	C471.275818,300.833405 468.138733,300.833405 465.003296,300.416168 
	C468.306549,282.262421 471.548309,264.514496 474.933350,246.793915 
	C476.833008,236.849197 479.094574,226.973236 480.966339,217.023636 
	C483.041229,205.994370 484.713867,194.888916 486.827515,183.867630 
	C488.862457,173.256790 491.313782,162.726471 493.437439,152.131790 
	C495.067139,144.001221 496.355957,135.801041 498.071136,127.689919 
	C498.429321,125.995918 499.992249,124.556656 501.000000,123.000000 
z"/>
<path fill="#F93F01" opacity="1.000000" stroke="none" 
	d="
M484.000000,1.000001 
	C489.610992,1.000000 495.221954,1.000000 501.000000,1.000000 
	C501.000000,10.020361 501.000000,19.041521 500.665833,28.654308 
	C499.306702,31.808811 497.839050,34.286255 497.325348,36.947815 
	C492.358826,62.679955 487.648865,88.461647 482.673431,114.192017 
	C477.691620,139.954987 472.535583,165.684631 467.367279,191.411057 
	C464.524353,205.562485 461.418396,219.661102 458.582123,233.813812 
	C456.462646,244.389847 454.585510,255.014450 452.599579,265.617249 
	C450.400848,277.355988 448.201202,289.094604 445.540863,300.907379 
	C440.387085,300.932129 435.694427,300.882751 431.001465,300.403473 
	C431.053528,298.483398 430.903748,296.953217 431.189331,295.509155 
	C434.263794,279.962280 437.441437,264.435791 440.518433,248.889420 
	C442.410889,239.327972 444.178284,229.741806 446.448456,220.094208 
	C448.816345,220.021652 450.737610,220.021652 452.998993,220.021652 
	C452.998993,205.484436 453.034912,191.466888 452.913452,177.450699 
	C452.905853,176.572342 451.667328,175.704636 451.001343,174.403488 
	C452.305359,166.959732 453.613556,159.945190 454.912842,152.929016 
	C458.115845,135.632690 461.220062,118.317375 464.545135,101.044563 
	C467.210663,87.198029 470.154022,73.405106 472.952332,59.583984 
	C475.515625,46.923870 478.128326,34.272957 480.565002,21.588354 
	C481.877167,14.757679 482.865570,7.864814 484.000000,1.000001 
z"/>
<path fill="#FDA017" opacity="1.000000" stroke="none" 
	d="
M125.000000,1.000000 
	C134.687561,1.000000 144.375122,1.000000 154.597931,1.361249 
	C155.152954,3.334281 155.483978,5.015572 155.142120,6.546600 
	C152.873352,16.706512 150.189682,26.780302 148.157120,36.984913 
	C145.013550,52.767529 142.348343,68.644814 139.345932,84.456444 
	C138.077179,91.138031 136.334625,97.729134 135.040543,104.406540 
	C132.546173,117.277473 130.206573,130.178497 127.823837,143.070938 
	C125.867561,153.655899 123.941750,164.246521 121.538300,174.905029 
	C111.383705,174.927673 101.693237,174.879898 92.002327,174.407379 
	C92.054634,172.486557 91.882347,170.941544 92.195335,169.502060 
	C94.974396,156.720566 97.974945,143.985977 100.640602,131.181427 
	C103.273865,118.532539 105.701767,105.838112 108.019661,93.127174 
	C110.068008,81.894455 111.564026,70.555870 113.812378,59.366196 
	C116.102608,47.968056 119.023033,36.696827 121.631538,25.361746 
	C121.812775,24.574200 121.645119,23.712992 121.724701,22.894302 
	C122.103500,18.997696 122.378304,15.084261 122.949409,11.215087 
	C123.455872,7.783921 124.303162,4.403064 125.000000,1.000000 
z"/>
<path fill="#FA4E03" opacity="1.000000" stroke="none" 
	d="
M425.000000,1.000000 
	C434.354218,1.000000 443.708466,1.000000 453.531067,1.437335 
	C453.888092,3.698828 453.979980,5.562503 453.634155,7.341064 
	C449.954376,26.265867 446.207031,45.177547 442.474365,64.092064 
	C438.424561,84.613701 434.410522,105.142517 430.294739,125.650909 
	C429.024078,131.982376 427.381287,138.238525 426.068176,144.562241 
	C423.975891,154.638519 422.017059,164.742508 419.538239,174.908691 
	C410.383881,174.932526 401.693085,174.882446 393.002258,174.411407 
	C395.872253,158.191986 398.686432,142.383118 401.627441,126.597885 
	C404.755493,109.808807 407.933685,93.028389 411.219696,76.269623 
	C414.346313,60.323586 417.795654,44.439602 420.800781,28.471441 
	C422.513031,19.373112 423.620300,10.160919 425.000000,1.000000 
z"/>
<path fill="#F94702" opacity="1.000000" stroke="none" 
	d="
M378.000000,501.000000 
	C368.645782,501.000000 359.291534,501.000000 349.476868,500.578186 
	C350.867798,489.727448 352.519318,479.258209 354.613495,468.878296 
	C358.578491,449.225372 362.952576,429.654572 366.861633,409.990997 
	C369.963715,394.386597 372.689148,378.705933 375.458954,363.037415 
	C377.097321,353.769562 378.496918,344.459473 380.467438,335.096863 
	C390.621338,335.072144 400.311676,335.118896 409.974121,335.548218 
	C408.008667,345.497681 406.000946,355.050964 404.147034,364.634003 
	C398.917786,391.664856 393.746185,418.706909 388.562714,445.746613 
	C385.032410,464.162598 381.520264,482.582092 378.000000,501.000000 
z"/>
<path fill="#FCAE1B" opacity="1.000000" stroke="none" 
	d="
M0.999998,421.000000 
	C1.000000,400.645782 1.000000,380.291534 1.336688,359.332031 
	C4.084927,349.496490 6.927491,340.353516 8.817685,331.017731 
	C12.669180,311.994934 15.963561,292.859985 19.572216,273.787262 
	C21.981693,261.052551 24.578146,248.353333 27.017433,235.624130 
	C30.107767,219.497559 32.995071,203.331055 36.208576,187.229385 
	C39.257114,171.954315 42.842686,156.784576 45.771843,141.488037 
	C48.857300,125.375229 51.260902,109.132401 54.300198,93.010056 
	C57.553974,75.749977 61.180023,58.559750 64.684402,41.347343 
	C67.423927,27.891644 70.225815,14.448642 73.000000,1.000000 
	C76.692909,1.000000 80.385818,1.000000 84.511559,1.411361 
	C73.629951,59.492920 62.315506,117.163116 50.577881,174.932770 
	C49.770195,176.296692 49.101631,177.550095 49.051949,178.827576 
	C48.868393,183.547791 48.889355,188.275970 48.507652,193.127808 
	C46.462303,199.393799 44.288586,205.446991 43.104481,211.687927 
	C38.770405,234.531052 35.009647,257.484222 30.563614,280.304474 
	C26.675598,300.260529 22.033037,320.068451 17.972351,339.992493 
	C16.165842,348.856262 15.117386,357.871948 13.462064,366.769775 
	C11.096584,379.484985 8.658798,392.192047 5.907727,404.827667 
	C4.713113,410.314514 2.662060,415.614929 0.999998,421.000000 
z"/>
<path fill="#FCB11B" opacity="1.000000" stroke="none" 
	d="
M72.535355,1.000000 
	C70.225815,14.448642 67.423927,27.891644 64.684402,41.347343 
	C61.180023,58.559750 57.553974,75.749977 54.300198,93.010056 
	C51.260902,109.132401 48.857300,125.375229 45.771843,141.488037 
	C42.842686,156.784576 39.257114,171.954315 36.208576,187.229385 
	C32.995071,203.331055 30.107767,219.497559 27.017433,235.624130 
	C24.578146,248.353333 21.981693,261.052551 19.572216,273.787262 
	C15.963561,292.859985 12.669180,311.994934 8.817685,331.017731 
	C6.927491,340.353516 4.084927,349.496490 1.336688,358.863342 
	C1.000000,335.979095 1.000000,312.958221 1.342057,289.323547 
	C2.019931,288.350891 2.572508,288.038025 2.659854,287.626465 
	C4.827160,277.414215 7.059168,267.213623 9.047799,256.965942 
	C12.870440,237.267365 16.422667,217.515778 20.325340,197.833420 
	C24.192442,178.330475 28.435577,158.902298 32.348572,139.408157 
	C34.178383,130.292236 35.464153,121.067513 37.270428,111.946342 
	C40.366055,96.314285 43.811924,80.751205 46.864334,65.111076 
	C51.030483,43.764317 54.965748,22.372499 59.000000,1.000000 
	C63.356899,1.000000 67.713799,1.000000 72.535355,1.000000 
z"/>
<path fill="#FBB71D" opacity="1.000000" stroke="none" 
	d="
M0.999999,201.000000 
	C1.000000,134.454041 1.000000,67.908081 1.000000,1.000000 
	C14.685432,1.000000 28.374058,1.000000 42.457848,1.382049 
	C41.606544,6.759684 40.125462,11.710148 39.154537,16.758724 
	C35.115391,37.761280 31.272610,58.801537 27.262770,79.809822 
	C26.020901,86.316200 24.300604,92.732635 23.107527,99.246689 
	C19.882114,116.857010 16.914694,134.514725 13.663491,152.120117 
	C11.591635,163.339325 9.479518,174.566620 6.823027,185.655563 
	C5.558862,190.932526 2.982141,195.895035 0.999999,201.000000 
z"/>
<path fill="#FD9915" opacity="1.000000" stroke="none" 
	d="
M122.002434,174.834625 
	C123.941750,164.246521 125.867561,153.655899 127.823837,143.070938 
	C130.206573,130.178497 132.546173,117.277473 135.040543,104.406540 
	C136.334625,97.729134 138.077179,91.138031 139.345932,84.456444 
	C142.348343,68.644814 145.013550,52.767529 148.157120,36.984913 
	C150.189682,26.780302 152.873352,16.706512 155.142120,6.546600 
	C155.483978,5.015572 155.152954,3.334281 155.066589,1.361249 
	C163.354233,1.000000 171.708466,1.000000 180.507446,1.390316 
	C178.308655,13.897547 175.436234,25.970131 173.078583,38.142418 
	C170.023193,53.917061 167.491562,69.792480 164.526306,85.585426 
	C161.134201,103.651741 157.511627,121.674759 153.994110,139.717545 
	C153.364716,142.945908 152.532974,146.155563 152.196426,149.415344 
	C151.708862,154.137939 151.796021,158.922791 151.243652,163.634857 
	C150.801865,167.403564 149.772232,171.103363 148.539337,174.904724 
	C139.384262,174.928665 130.693344,174.881653 122.002434,174.834625 
z"/>
<path fill="#F83A00" opacity="1.000000" stroke="none" 
	d="
M446.001984,300.833252 
	C448.201202,289.094604 450.400848,277.355988 452.599579,265.617249 
	C454.585510,255.014450 456.462646,244.389847 458.582123,233.813812 
	C461.418396,219.661102 464.524353,205.562485 467.367279,191.411057 
	C472.535583,165.684631 477.691620,139.954987 482.673431,114.192017 
	C487.648865,88.461647 492.358826,62.679955 497.325348,36.947815 
	C497.839050,34.286255 499.306702,31.808811 500.665833,29.122967 
	C501.000000,60.020893 501.000000,91.041786 501.000000,122.531342 
	C499.992249,124.556656 498.429321,125.995918 498.071136,127.689919 
	C496.355957,135.801041 495.067139,144.001221 493.437439,152.131790 
	C491.313782,162.726471 488.862457,173.256790 486.827515,183.867630 
	C484.713867,194.888916 483.041229,205.994370 480.966339,217.023636 
	C479.094574,226.973236 476.833008,236.849197 474.933350,246.793915 
	C471.548309,264.514496 468.306549,282.262421 464.540039,300.490234 
	C458.050812,300.932129 452.026398,300.882690 446.001984,300.833252 
z"/>
<path fill="#FD9113" opacity="1.000000" stroke="none" 
	d="
M149.003510,174.833755 
	C149.772232,171.103363 150.801865,167.403564 151.243652,163.634857 
	C151.796021,158.922791 151.708862,154.137939 152.196426,149.415344 
	C152.532974,146.155563 153.364716,142.945908 153.994110,139.717545 
	C157.511627,121.674759 161.134201,103.651741 164.526306,85.585426 
	C167.491562,69.792480 170.023193,53.917061 173.078583,38.142418 
	C175.436234,25.970131 178.308655,13.897547 180.976105,1.390316 
	C188.687576,1.000000 196.375168,1.000000 204.529907,1.414320 
	C203.112198,12.409135 201.328568,23.008890 199.320007,33.565853 
	C195.845428,51.828129 192.186295,70.055237 188.693649,88.314133 
	C186.772781,98.356049 185.751694,108.633804 183.006622,118.436043 
	C180.364960,127.869026 177.069275,136.947357 178.865097,146.985016 
	C179.192261,148.813644 178.246811,150.867584 177.900391,152.819550 
	C176.598007,160.157822 175.300400,167.496948 173.536896,174.905746 
	C165.049698,174.928406 157.026611,174.881088 149.003510,174.833755 
z"/>
<path fill="#FCB41C" opacity="1.000000" stroke="none" 
	d="
M0.999999,201.468658 
	C2.982141,195.895035 5.558862,190.932526 6.823027,185.655563 
	C9.479518,174.566620 11.591635,163.339325 13.663491,152.120117 
	C16.914694,134.514725 19.882114,116.857010 23.107527,99.246689 
	C24.300604,92.732635 26.020901,86.316200 27.262770,79.809822 
	C31.272610,58.801537 35.115391,37.761280 39.154537,16.758724 
	C40.125462,11.710148 41.606544,6.759684 42.926506,1.382049 
	C48.022091,1.000000 53.044186,1.000000 58.533134,1.000000 
	C54.965748,22.372499 51.030483,43.764317 46.864334,65.111076 
	C43.811924,80.751205 40.366055,96.314285 37.270428,111.946342 
	C35.464153,121.067513 34.178383,130.292236 32.348572,139.408157 
	C28.435577,158.902298 24.192442,178.330475 20.325340,197.833420 
	C16.422667,217.515778 12.870440,237.267365 9.047799,256.965942 
	C7.059168,267.213623 4.827160,277.414215 2.659854,287.626465 
	C2.572508,288.038025 2.019931,288.350891 1.342057,288.854858 
	C1.000000,259.979095 1.000000,230.958206 0.999999,201.468658 
z"/>
<path fill="#FCAB1A" opacity="1.000000" stroke="none" 
	d="
M0.999998,421.468658 
	C2.662060,415.614929 4.713113,410.314514 5.907727,404.827667 
	C8.658798,392.192047 11.096584,379.484985 13.462064,366.769775 
	C15.117386,357.871948 16.165842,348.856262 17.972351,339.992493 
	C22.033037,320.068451 26.675598,300.260529 30.563614,280.304474 
	C35.009647,257.484222 38.770405,234.531052 43.104481,211.687927 
	C44.288586,205.446991 46.462303,199.393799 48.575230,193.592117 
	C48.968586,202.517227 48.968586,211.104660 48.968586,220.165695 
	C52.070736,220.165695 54.535892,220.165695 57.000687,220.594757 
	C56.878254,222.844727 56.930038,224.697037 56.607529,226.481705 
	C52.880131,247.107956 49.263325,267.756470 45.265865,288.330780 
	C42.771503,301.168915 39.639202,313.882233 36.868969,326.667969 
	C34.585186,337.208496 32.272102,347.745880 30.222237,358.333130 
	C26.672861,376.665039 23.316074,395.034241 19.880573,413.388184 
	C16.246748,432.801758 12.562427,452.206055 9.005076,471.633606 
	C7.216686,481.400452 5.660947,491.209839 4.000000,501.000000 
	C3.005301,501.000000 2.010602,501.000000 1.000000,501.000000 
	C1.000000,474.645782 1.000000,448.291534 0.999998,421.468658 
z"/>
<path fill="#F93D01" opacity="1.000000" stroke="none" 
	d="
M451.002686,335.166931 
	C448.886108,346.592377 446.831970,358.029785 444.640411,369.440826 
	C439.539978,395.997986 434.394562,422.546539 429.225739,449.090485 
	C425.904694,466.145477 422.509644,483.186066 419.073883,500.616547 
	C411.312408,501.000000 403.624847,501.000000 395.470184,500.579468 
	C399.359772,476.861450 403.658295,453.552765 408.117889,430.274963 
	C409.114502,425.072968 410.934143,420.028534 411.928894,414.826263 
	C414.760803,400.015869 417.292908,385.148376 420.077118,370.328522 
	C422.282715,358.588623 424.686371,346.885956 427.465698,335.094696 
	C435.620453,335.070740 443.311554,335.118835 451.002686,335.166931 
z"/>
<path fill="#FDA418" opacity="1.000000" stroke="none" 
	d="
M35.000000,501.000000 
	C28.312355,501.000000 21.624710,501.000000 14.468632,500.556854 
	C14.467690,495.002106 14.521382,489.809814 15.498603,484.797607 
	C17.005239,477.069946 19.430731,469.521851 20.948990,461.795929 
	C23.267992,449.995178 25.003836,438.080536 27.266294,426.267700 
	C28.538416,419.625641 30.627520,413.140167 31.902222,406.498474 
	C35.617897,387.138489 39.063934,367.726959 42.705585,348.352509 
	C44.754135,337.453705 46.776321,326.541931 49.231407,315.731628 
	C50.151077,311.682068 52.264160,307.903534 53.900795,304.465698 
	C53.968460,314.842621 53.968460,324.755249 53.968460,335.165527 
	C58.415447,335.165527 62.208595,335.165527 66.001175,335.596741 
	C65.793716,338.173187 65.745514,340.347961 65.352531,342.458527 
	C63.629032,351.714874 61.765938,360.945160 60.030033,370.199280 
	C58.355530,379.126038 56.913113,388.098236 55.120041,397.000397 
	C52.562386,409.698547 49.622303,422.320557 47.134804,435.031708 
	C44.720757,447.367493 42.710228,459.781738 40.450367,472.148346 
	C38.691010,481.776062 36.820892,491.383545 35.000000,501.000000 
z"/>
<path fill="#FD8E12" opacity="1.000000" stroke="none" 
	d="
M120.000000,501.000000 
	C113.978844,501.000000 107.957695,501.000000 101.536697,500.641846 
	C102.414253,494.002075 103.762558,487.733887 104.956184,481.436401 
	C109.091415,459.619324 112.864456,437.727631 117.403160,415.995483 
	C119.718643,404.908569 123.928467,394.219543 126.287010,383.138885 
	C129.668991,367.249969 132.141312,351.167389 135.465637,335.098450 
	C141.953583,335.074738 147.977890,335.120117 153.994080,335.562744 
	C153.224548,340.366638 152.767685,344.852264 151.649155,349.166321 
	C146.737839,368.108856 144.989059,387.685089 138.534439,406.407593 
	C133.988464,419.593781 132.667160,433.895050 129.949661,447.707031 
	C128.093826,457.139435 126.275703,466.579651 124.510117,476.029327 
	C122.956696,484.343506 121.499626,492.675751 120.000000,501.000000 
z"/>
<path fill="#F94201" opacity="1.000000" stroke="none" 
	d="
M483.532043,1.000001 
	C482.865570,7.864814 481.877167,14.757679 480.565002,21.588354 
	C478.128326,34.272957 475.515625,46.923870 472.952332,59.583984 
	C470.154022,73.405106 467.210663,87.198029 464.545135,101.044563 
	C461.220062,118.317375 458.115845,135.632690 454.912842,152.929016 
	C453.613556,159.945190 452.305359,166.959732 450.538391,174.477234 
	C444.384888,174.930099 438.694153,174.880737 433.004517,174.424194 
	C433.220490,172.545013 433.358826,171.056992 433.662659,169.603577 
	C435.724548,159.739456 438.027191,149.920609 439.855347,140.013916 
	C442.195953,127.330055 443.937805,114.534492 446.344116,101.864243 
	C450.053772,82.331375 454.169586,62.876011 457.996399,43.364880 
	C460.762360,29.262491 463.338959,15.122965 466.000000,0.999998 
	C471.688049,1.000000 477.376068,1.000000 483.532043,1.000001 
z"/>
<path fill="#FD9915" opacity="1.000000" stroke="none" 
	d="
M85.000000,501.000000 
	C79.311958,501.000000 73.623917,501.000000 67.467926,500.560516 
	C68.299187,492.463531 69.479912,484.783722 70.919441,477.152679 
	C75.585281,452.418671 80.361214,427.705475 85.061371,402.977905 
	C86.549515,395.148712 87.874573,387.288391 89.376755,379.462006 
	C92.212257,364.689087 95.122101,349.930420 98.465012,335.097473 
	C105.287125,335.074799 111.645264,335.120514 117.915077,335.557037 
	C117.607323,336.750702 117.300056,337.540894 117.181602,338.358398 
	C115.357483,350.947510 114.665062,363.804504 108.132523,375.253876 
	C107.495934,376.369598 107.323746,377.785339 107.087929,379.089264 
	C104.845955,391.486023 102.818848,403.924835 100.370018,416.280212 
	C97.606110,430.225250 94.410553,444.084198 91.519958,458.004913 
	C89.664696,466.939575 87.814651,475.884918 86.361023,484.889801 
	C85.504654,490.194855 85.427567,495.625732 85.000000,501.000000 
z"/>
<path fill="#FD800F" opacity="1.000000" stroke="none" 
	d="
M249.000000,1.000000 
	C254.688034,1.000000 260.376068,1.000000 266.524994,1.410556 
	C262.339905,25.803120 257.693481,49.785046 253.048035,73.767159 
	C249.644516,91.337860 246.218613,108.904282 242.854675,126.482567 
	C241.920639,131.363434 241.230148,136.290512 240.326614,141.177673 
	C238.251328,152.402695 236.113693,163.616180 233.539093,174.905182 
	C228.052048,174.928513 223.027267,174.880981 218.002289,174.408966 
	C219.307587,166.977127 220.765045,159.994019 221.888626,152.957611 
	C224.698792,135.359009 227.263641,117.721031 230.113007,100.128990 
	C231.758057,89.972343 233.607300,79.842331 235.654068,69.759079 
	C237.531677,60.509171 239.989456,51.376553 241.844955,42.122746 
	C244.287628,29.940462 246.406372,17.692930 248.621048,5.465603 
	C248.886093,4.002195 248.880280,2.489728 249.000000,1.000000 
z"/>
<path fill="#FD800F" opacity="1.000000" stroke="none" 
	d="
M168.000000,501.000000 
	C161.978851,501.000000 155.957703,501.000000 149.493988,500.601135 
	C150.713821,492.965881 152.567307,485.766937 153.994766,478.484528 
	C156.256134,466.947845 158.138107,455.337067 160.363541,443.792938 
	C161.768463,436.505066 163.589798,429.298370 165.071762,422.024170 
	C166.593918,414.552795 167.692505,406.987610 169.437164,399.571869 
	C170.487320,395.108154 172.828796,390.945862 173.854355,386.479248 
	C175.372345,379.867859 176.202835,373.100403 177.387390,366.410278 
	C179.232178,355.991272 181.128464,345.581390 183.465866,335.098541 
	C189.286301,335.075104 194.643784,335.120789 199.992401,335.573730 
	C195.838470,356.595245 191.612991,377.193878 187.579422,397.829987 
	C185.271881,409.635651 183.315125,421.509552 181.126343,433.338989 
	C179.803802,440.486877 178.335388,447.607727 176.939590,454.742096 
	C175.221664,463.522827 173.500458,472.302948 171.800995,481.087250 
	C170.517456,487.721649 169.265823,494.362183 168.000000,501.000000 
z"/>
<path fill="#FD9113" opacity="1.000000" stroke="none" 
	d="
M85.466858,501.000000 
	C85.427567,495.625732 85.504654,490.194855 86.361023,484.889801 
	C87.814651,475.884918 89.664696,466.939575 91.519958,458.004913 
	C94.410553,444.084198 97.606110,430.225250 100.370018,416.280212 
	C102.818848,403.924835 104.845955,391.486023 107.087929,379.089264 
	C107.323746,377.785339 107.495934,376.369598 108.132523,375.253876 
	C114.665062,363.804504 115.357483,350.947510 117.181602,338.358398 
	C117.300056,337.540894 117.607323,336.750702 118.378204,335.489441 
	C124.287094,335.076569 129.644531,335.122040 135.001984,335.167511 
	C132.141312,351.167389 129.668991,367.249969 126.287010,383.138885 
	C123.928467,394.219543 119.718643,404.908569 117.403160,415.995483 
	C112.864456,437.727631 109.091415,459.619324 104.956184,481.436401 
	C103.762558,487.733887 102.414253,494.002075 101.068436,500.641846 
	C95.977905,501.000000 90.955818,501.000000 85.466858,501.000000 
z"/>
<path fill="#FDA819" opacity="1.000000" stroke="none" 
	d="
M53.833130,304.001434 
	C52.264160,307.903534 50.151077,311.682068 49.231407,315.731628 
	C46.776321,326.541931 44.754135,337.453705 42.705585,348.352509 
	C39.063934,367.726959 35.617897,387.138489 31.902222,406.498474 
	C30.627520,413.140167 28.538416,419.625641 27.266294,426.267700 
	C25.003836,438.080536 23.267992,449.995178 20.948990,461.795929 
	C19.430731,469.521851 17.005239,477.069946 15.498603,484.797607 
	C14.521382,489.809814 14.467690,495.002106 14.000099,500.556854 
	C10.969407,501.000000 7.938814,501.000000 4.454111,501.000000 
	C5.660947,491.209839 7.216686,481.400452 9.005076,471.633606 
	C12.562427,452.206055 16.246748,432.801758 19.880573,413.388184 
	C23.316074,395.034241 26.672861,376.665039 30.222237,358.333130 
	C32.272102,347.745880 34.585186,337.208496 36.868969,326.667969 
	C39.639202,313.882233 42.771503,301.168915 45.265865,288.330780 
	C49.263325,267.756470 52.880131,247.107956 56.607529,226.481705 
	C56.930038,224.697037 56.878254,222.844727 57.454651,220.527252 
	C61.273037,220.076035 64.637100,220.121429 67.974083,220.547638 
	C65.649872,231.104614 63.116383,241.234467 61.111160,251.467804 
	C58.121292,266.726105 55.453800,282.048737 52.810440,297.371826 
	C52.562080,298.811493 53.464813,300.449768 53.899624,302.327881 
	C53.921799,303.107117 53.877464,303.554291 53.833130,304.001434 
z"/>
<path fill="#FD8510" opacity="1.000000" stroke="none" 
	d="
M248.533142,1.000000 
	C248.880280,2.489728 248.886093,4.002195 248.621048,5.465603 
	C246.406372,17.692930 244.287628,29.940462 241.844955,42.122746 
	C239.989456,51.376553 237.531677,60.509171 235.654068,69.759079 
	C233.607300,79.842331 231.758057,89.972343 230.113007,100.128990 
	C227.263641,117.721031 224.698792,135.359009 221.888626,152.957611 
	C220.765045,159.994019 219.307587,166.977127 217.540039,174.480316 
	C212.052643,174.928680 207.027328,174.881195 202.001892,174.409119 
	C203.560593,164.164673 205.239227,154.361908 206.643509,144.520035 
	C207.971298,135.214386 208.800705,125.835175 210.234589,116.547806 
	C211.760895,106.661804 213.695389,96.837379 215.532776,87.001228 
	C217.437759,76.803207 219.339264,66.602699 221.421600,56.440022 
	C225.211075,37.945671 229.133209,19.478508 233.000000,0.999999 
	C238.022095,1.000000 243.044189,1.000000 248.533142,1.000000 
z"/>
<path fill="#FC6708" opacity="1.000000" stroke="none" 
	d="
M261.000000,501.000000 
	C255.645065,501.000000 250.290146,501.000000 244.545898,500.601990 
	C245.868408,490.441315 247.435745,480.650574 249.328110,470.923065 
	C251.763229,458.405609 254.595612,445.965179 257.009399,433.443878 
	C260.339447,416.169495 263.339417,398.831451 266.665680,381.556305 
	C269.647797,366.068390 272.879944,350.628632 276.464600,335.096863 
	C282.285431,335.072540 287.643463,335.118988 292.993652,335.561401 
	C290.128540,350.742462 287.254425,365.524292 284.419586,380.313660 
	C282.210541,391.838196 280.097107,403.381134 277.854065,414.898956 
	C275.960114,424.624359 273.919891,434.321198 271.983337,444.038422 
	C270.111145,453.432648 268.263641,462.832001 266.451263,472.237946 
	C264.605042,481.819672 262.814789,491.412201 261.000000,501.000000 
z"/>
<path fill="#F94201" opacity="1.000000" stroke="none" 
	d="
M427.002075,335.166748 
	C424.686371,346.885956 422.282715,358.588623 420.077118,370.328522 
	C417.292908,385.148376 414.760803,400.015869 411.928894,414.826263 
	C410.934143,420.028534 409.114502,425.072968 408.117889,430.274963 
	C403.658295,453.552765 399.359772,476.861450 395.001556,500.579468 
	C389.645081,501.000000 384.290131,501.000000 378.467590,501.000000 
	C381.520264,482.582092 385.032410,464.162598 388.562714,445.746613 
	C393.746185,418.706909 398.917786,391.664856 404.147034,364.634003 
	C406.000946,355.050964 408.008667,345.497681 410.436768,335.476501 
	C416.285614,335.070374 421.643829,335.118561 427.002075,335.166748 
z"/>
<path fill="#FD8911" opacity="1.000000" stroke="none" 
	d="
M120.467941,501.000000 
	C121.499626,492.675751 122.956696,484.343506 124.510117,476.029327 
	C126.275703,466.579651 128.093826,457.139435 129.949661,447.707031 
	C132.667160,433.895050 133.988464,419.593781 138.534439,406.407593 
	C144.989059,387.685089 146.737839,368.108856 151.649155,349.166321 
	C152.767685,344.852264 153.224548,340.366638 154.456421,335.494232 
	C159.951889,335.074310 164.976883,335.120148 170.001404,335.604492 
	C169.327377,340.781281 168.794739,345.544800 167.950699,350.252472 
	C166.228607,359.857544 164.586380,369.488007 162.453094,379.005310 
	C159.998413,389.956451 156.859314,400.753540 154.370300,411.697784 
	C152.167511,421.383606 150.465210,431.182800 148.511261,440.925781 
	C146.951065,448.705414 145.144348,456.441437 143.804947,464.258148 
	C141.711044,476.478210 139.919586,488.750092 138.000000,501.000000 
	C132.311951,501.000000 126.623917,501.000000 120.467941,501.000000 
z"/>
<path fill="#FD760C" opacity="1.000000" stroke="none" 
	d="
M206.000000,501.000000 
	C200.977905,501.000000 195.955811,501.000000 190.466919,500.564758 
	C190.669113,496.060242 191.227188,491.969025 192.027191,487.925720 
	C194.788651,473.968781 197.645233,460.030670 200.444504,446.081146 
	C202.302780,436.820831 204.190598,427.565704 205.948425,418.286133 
	C208.754486,403.473022 211.510971,388.650177 214.198929,373.815186 
	C216.531036,360.944244 218.739014,348.050781 221.465103,335.097290 
	C227.619431,335.073242 233.310532,335.119202 238.922913,335.525208 
	C236.542313,346.238129 234.031509,356.550140 231.997284,366.955292 
	C229.961273,377.369446 228.625656,387.920776 226.576874,398.332062 
	C223.958862,411.635803 220.767792,424.826538 218.128403,438.126434 
	C215.164810,453.059906 212.581085,468.068451 209.750031,483.028778 
	C208.612396,489.040436 207.256531,495.010834 206.000000,501.000000 
z"/>
<path fill="#FD9C16" opacity="1.000000" stroke="none" 
	d="
M98.001038,335.165833 
	C95.122101,349.930420 92.212257,364.689087 89.376755,379.462006 
	C87.874573,387.288391 86.549515,395.148712 85.061371,402.977905 
	C80.361214,427.705475 75.585281,452.418671 70.919441,477.152679 
	C69.479912,484.783722 68.299187,492.463531 66.999985,500.560516 
	C61.645069,501.000000 56.290142,501.000000 50.467606,500.561462 
	C50.233585,497.657257 50.239128,495.143921 50.742649,492.734680 
	C52.387928,484.862122 54.411148,477.065125 55.923603,469.169098 
	C57.973431,458.467590 59.590408,447.683807 61.571140,436.968262 
	C63.257927,427.842834 65.280075,418.779755 67.004021,409.660797 
	C69.525993,396.320648 71.747665,382.921936 74.409569,369.610596 
	C76.714554,358.084167 79.454239,346.644684 82.464233,335.098785 
	C87.951469,335.075806 92.976257,335.120819 98.001038,335.165833 
z"/>
<path fill="#FC6F0A" opacity="1.000000" stroke="none" 
	d="
M312.000000,0.999999 
	C317.022095,1.000000 322.044189,1.000000 327.531525,1.423477 
	C326.469086,10.666774 325.145081,19.527826 323.369507,28.297451 
	C320.111115,44.390583 316.444122,60.401333 313.222992,76.501541 
	C311.076782,87.229050 309.515442,98.072197 307.500824,108.827721 
	C304.416504,125.294144 301.148529,141.726089 297.998138,158.180252 
	C296.937561,163.719559 295.997498,169.281921 294.540222,174.905975 
	C289.052673,174.929810 284.027252,174.881378 279.010010,174.426575 
	C282.989532,154.021149 287.024994,134.034576 290.915863,114.019913 
	C295.665680,89.586494 300.355347,65.140991 304.950409,40.678051 
	C307.430176,27.476435 309.658325,14.227558 312.000000,0.999999 
z"/>
<path fill="#FC6A09" opacity="1.000000" stroke="none" 
	d="
M295.002380,174.833740 
	C295.997498,169.281921 296.937561,163.719559 297.998138,158.180252 
	C301.148529,141.726089 304.416504,125.294144 307.500824,108.827721 
	C309.515442,98.072197 311.076782,87.229050 313.222992,76.501541 
	C316.444122,60.401333 320.111115,44.390583 323.369507,28.297451 
	C325.145081,19.527826 326.469086,10.666774 327.998383,1.423477 
	C333.022095,1.000000 338.044189,1.000000 343.507080,1.401538 
	C342.532410,8.933763 341.129517,16.066957 339.699158,23.194641 
	C335.948792,41.883198 332.177582,60.567577 328.431641,79.257027 
	C325.106232,95.848190 321.732574,112.430176 318.521790,129.043579 
	C316.988403,136.977997 315.872620,144.992386 314.403473,152.940186 
	C313.050568,160.258987 311.477753,167.537109 309.540466,174.905426 
	C304.386871,174.929718 299.694611,174.881729 295.002380,174.833740 
z"/>
<path fill="#FB5905" opacity="1.000000" stroke="none" 
	d="
M389.000000,1.000002 
	C393.689240,1.000000 398.378510,1.000000 403.532257,1.422169 
	C403.053314,6.388534 402.036530,10.918937 401.179169,15.479321 
	C397.535461,34.860523 394.024048,54.266960 390.300446,73.632675 
	C386.822937,91.718559 383.038208,109.745461 379.575470,127.834068 
	C376.581421,143.474487 373.849640,159.165070 370.539917,174.906509 
	C365.052612,174.930908 360.027344,174.882263 355.008911,174.440063 
	C355.035339,173.714005 355.013306,173.372818 355.080414,173.050201 
	C360.622955,146.400421 366.328125,119.783241 371.668121,93.092995 
	C375.383270,74.523895 378.565491,55.848583 382.047028,37.232182 
	C384.307678,25.144125 386.678558,13.076685 389.000000,1.000002 
z"/>
<path fill="#FD8E12" opacity="1.000000" stroke="none" 
	d="
M174.000992,174.835754 
	C175.300400,167.496948 176.598007,160.157822 177.900391,152.819550 
	C178.246811,150.867584 179.192261,148.813644 178.865097,146.985016 
	C177.069275,136.947357 180.364960,127.869026 183.006622,118.436043 
	C185.751694,108.633804 186.772781,98.356049 188.693649,88.314133 
	C192.186295,70.055237 195.845428,51.828129 199.320007,33.565853 
	C201.328568,23.008890 203.112198,12.409135 204.998535,1.414320 
	C210.022095,1.000000 215.044189,1.000000 220.462875,1.370179 
	C218.586227,11.059809 215.970688,20.311941 214.121521,29.714788 
	C211.473816,43.178158 209.566528,56.785816 207.013336,70.269424 
	C203.839554,87.030380 200.112122,103.688286 197.071030,120.471725 
	C195.843994,127.243568 196.188660,134.290085 195.131607,141.105118 
	C193.380661,152.393875 191.074142,163.596451 188.540131,174.906036 
	C183.386047,174.929733 178.693527,174.882751 174.000992,174.835754 
z"/>
<path fill="#FC6F0A" opacity="1.000000" stroke="none" 
	d="
M232.000000,501.000000 
	C226.645065,501.000000 221.290146,501.000000 215.541260,500.617401 
	C218.554901,482.666138 221.898499,465.084778 225.385239,447.531830 
	C230.458801,421.990479 235.729584,396.488037 240.726410,370.931885 
	C243.048553,359.055359 244.923859,347.091492 247.464600,335.096863 
	C253.285721,335.073181 258.643982,335.119904 263.920410,335.536926 
	C262.400665,342.899567 260.945221,349.888275 259.527954,356.884735 
	C254.325317,382.568085 249.079224,408.242889 243.961517,433.943176 
	C240.850937,449.563995 237.861130,465.210236 234.988647,480.876495 
	C233.766327,487.542877 232.982880,494.289734 232.000000,501.000000 
z"/>
<path fill="#FB6007" opacity="1.000000" stroke="none" 
	d="
M284.000000,501.000000 
	C278.977905,501.000000 273.955811,501.000000 268.494690,500.588867 
	C269.661469,491.888000 271.275757,483.599823 272.871399,475.308105 
	C276.220428,457.904999 279.553223,440.498749 282.904602,423.096069 
	C286.472137,404.570953 290.149902,386.066376 293.591675,367.517975 
	C295.586060,356.769958 297.210419,345.953278 299.463318,335.096191 
	C304.950623,335.071594 309.975891,335.118225 314.998932,335.578003 
	C314.881378,337.146851 314.871185,338.324524 314.634796,339.454895 
	C311.547150,354.221375 308.299408,368.955658 305.348602,383.749207 
	C301.754150,401.769562 298.367523,419.831787 294.957825,437.888489 
	C292.500397,450.902405 290.076263,463.923676 287.783356,476.967316 
	C286.379517,484.953125 285.251740,492.987457 284.000000,501.000000 
z"/>
<path fill="#FDA819" opacity="1.000000" stroke="none" 
	d="
M97.000000,1.000000 
	C101.689255,1.000000 106.378510,1.000000 111.509094,1.396899 
	C109.971840,11.658740 107.985115,21.522055 106.016350,31.388952 
	C101.643860,53.302597 97.188354,75.200226 92.942001,97.138313 
	C89.476265,115.043472 86.217659,132.989304 82.962257,150.934341 
	C81.521065,158.878738 80.314606,166.865723 78.539810,174.902451 
	C73.385826,174.925430 68.693611,174.879333 64.009506,174.428238 
	C65.149635,167.851822 66.135429,161.649216 67.444267,155.515518 
	C70.140518,142.879974 73.312698,130.339005 75.728157,117.652336 
	C78.568626,102.733437 80.586502,87.658684 83.378777,72.729637 
	C86.457649,56.268234 90.101562,39.913292 93.315865,23.476093 
	C94.772217,16.028708 95.785645,8.494708 97.000000,1.000000 
z"/>
<path fill="#FDA017" opacity="1.000000" stroke="none" 
	d="
M82.001778,335.166748 
	C79.454239,346.644684 76.714554,358.084167 74.409569,369.610596 
	C71.747665,382.921936 69.525993,396.320648 67.004021,409.660797 
	C65.280075,418.779755 63.257927,427.842834 61.571140,436.968262 
	C59.590408,447.683807 57.973431,458.467590 55.923603,469.169098 
	C54.411148,477.065125 52.387928,484.862122 50.742649,492.734680 
	C50.239128,495.143921 50.233585,497.657257 50.000000,500.561462 
	C45.310745,501.000000 40.621487,501.000000 35.466118,501.000000 
	C36.820892,491.383545 38.691010,481.776062 40.450367,472.148346 
	C42.710228,459.781738 44.720757,447.367493 47.134804,435.031708 
	C49.622303,422.320557 52.562386,409.698547 55.120041,397.000397 
	C56.913113,388.098236 58.355530,379.126038 60.030033,370.199280 
	C61.765938,360.945160 63.629032,351.714874 65.352531,342.458527 
	C65.745514,340.347961 65.793716,338.173187 66.463707,335.529266 
	C71.951797,335.075958 76.976791,335.121368 82.001778,335.166748 
z"/>
<path fill="#FB5905" opacity="1.000000" stroke="none" 
	d="
M310.000000,501.000000 
	C305.310760,501.000000 300.621490,501.000000 295.467651,500.577881 
	C295.193817,498.678162 295.299286,497.183594 295.588257,495.725433 
	C299.360168,476.691925 303.206085,457.672913 306.936707,438.631348 
	C311.114197,417.308868 315.186249,395.965729 319.317566,374.634186 
	C321.866058,361.475403 324.439575,348.321411 327.461731,335.094360 
	C332.281647,335.070892 336.641693,335.118347 340.999237,335.584290 
	C339.502899,344.648651 338.188599,353.330261 336.475586,361.932404 
	C333.469116,377.029266 330.061707,392.046814 327.108002,407.153473 
	C323.037781,427.970306 319.174286,448.828278 315.339325,469.690155 
	C313.425323,480.102112 311.771515,490.561859 310.000000,501.000000 
z"/>
<path fill="#FA4E03" opacity="1.000000" stroke="none" 
	d="
M380.003906,335.168396 
	C378.496918,344.459473 377.097321,353.769562 375.458954,363.037415 
	C372.689148,378.705933 369.963715,394.386597 366.861633,409.990997 
	C362.952576,429.654572 358.578491,449.225372 354.613495,468.878296 
	C352.519318,479.258209 350.867798,489.727448 349.008209,500.578186 
	C344.643097,501.000000 340.286194,501.000000 335.472198,500.581909 
	C335.768433,494.415131 336.249512,488.614868 337.327728,482.927765 
	C340.195648,467.800446 343.313782,452.720490 346.345673,437.624329 
	C350.781952,415.535706 355.331635,393.469208 359.632141,371.354187 
	C361.969757,359.333099 363.892273,347.231323 366.461853,335.094604 
	C371.282440,335.071655 375.643188,335.120026 380.003906,335.168396 
z"/>
<path fill="#FDA418" opacity="1.000000" stroke="none" 
	d="
M79.001587,174.833374 
	C80.314606,166.865723 81.521065,158.878738 82.962257,150.934341 
	C86.217659,132.989304 89.476265,115.043472 92.942001,97.138313 
	C97.188354,75.200226 101.643860,53.302597 106.016350,31.388952 
	C107.985115,21.522055 109.971840,11.658740 111.975204,1.396899 
	C116.024544,1.000000 120.049088,1.000000 124.536819,1.000000 
	C124.303162,4.403064 123.455872,7.783921 122.949409,11.215087 
	C122.378304,15.084261 122.103500,18.997696 121.724701,22.894302 
	C121.645119,23.712992 121.812775,24.574200 121.631538,25.361746 
	C119.023033,36.696827 116.102608,47.968056 113.812378,59.366196 
	C111.564026,70.555870 110.068008,81.894455 108.019661,93.127174 
	C105.701767,105.838112 103.273865,118.532539 100.640602,131.181427 
	C97.974945,143.985977 94.974396,156.720566 92.195335,169.502060 
	C91.882347,170.941544 92.054634,172.486557 91.543427,174.477081 
	C87.057167,174.925461 83.029381,174.879410 79.001587,174.833374 
z"/>
<path fill="#FD8911" opacity="1.000000" stroke="none" 
	d="
M189.001678,174.835358 
	C191.074142,163.596451 193.380661,152.393875 195.131607,141.105118 
	C196.188660,134.290085 195.843994,127.243568 197.071030,120.471725 
	C200.112122,103.688286 203.839554,87.030380 207.013336,70.269424 
	C209.566528,56.785816 211.473816,43.178158 214.121521,29.714788 
	C215.970688,20.311941 218.586227,11.059809 220.929733,1.370179 
	C224.692902,1.000000 228.385818,1.000000 232.539352,0.999999 
	C229.133209,19.478508 225.211075,37.945671 221.421600,56.440022 
	C219.339264,66.602699 217.437759,76.803207 215.532776,87.001228 
	C213.695389,96.837379 211.760895,106.661804 210.234589,116.547806 
	C208.800705,125.835175 207.971298,135.214386 206.643509,144.520035 
	C205.239227,154.361908 203.560593,164.164673 201.543228,174.479919 
	C197.057007,174.928650 193.029343,174.882004 189.001678,174.835358 
z"/>
<path fill="#FB5E06" opacity="1.000000" stroke="none" 
	d="
M388.536835,1.000002 
	C386.678558,13.076685 384.307678,25.144125 382.047028,37.232182 
	C378.565491,55.848583 375.383270,74.523895 371.668121,93.092995 
	C366.328125,119.783241 360.622955,146.400421 355.080414,173.050201 
	C355.013306,173.372818 355.035339,173.714005 354.553009,174.512848 
	C350.393951,174.930634 346.697662,174.882095 343.008545,174.436340 
	C345.158356,162.119736 347.148499,150.170395 349.483734,138.288849 
	C352.135895,124.794632 355.242462,111.389664 357.890106,97.894615 
	C362.176270,76.048103 366.285858,54.166656 370.396057,32.286060 
	C372.351929,21.873882 374.137360,11.429690 376.000000,1.000001 
	C380.024536,1.000000 384.049103,1.000000 388.536835,1.000002 
z"/>
<path fill="#FCAB1A" opacity="1.000000" stroke="none" 
	d="
M96.539368,1.000000 
	C95.785645,8.494708 94.772217,16.028708 93.315865,23.476093 
	C90.101562,39.913292 86.457649,56.268234 83.378777,72.729637 
	C80.586502,87.658684 78.568626,102.733437 75.728157,117.652336 
	C73.312698,130.339005 70.140518,142.879974 67.444267,155.515518 
	C66.135429,161.649216 65.149635,167.851822 63.550598,174.497070 
	C59.056084,174.925034 55.028572,174.879166 51.001064,174.833313 
	C62.315506,117.163116 73.629951,59.492920 84.972198,1.411361 
	C88.692909,1.000000 92.385818,1.000000 96.539368,1.000000 
z"/>
<path fill="#FC730B" opacity="1.000000" stroke="none" 
	d="
M311.539368,0.999999 
	C309.658325,14.227558 307.430176,27.476435 304.950409,40.678051 
	C300.355347,65.140991 295.665680,89.586494 290.915863,114.019913 
	C287.024994,134.034576 282.989532,154.021149 278.554016,174.498337 
	C274.393829,174.928711 270.697845,174.880920 267.001465,174.398682 
	C267.249420,171.326431 267.274384,168.644608 267.783539,166.058121 
	C270.471985,152.400543 273.340454,138.778442 276.036774,125.122360 
	C279.987732,105.111717 283.872528,85.087883 287.735962,65.060104 
	C291.854034,43.712536 295.914429,22.353840 300.000000,1.000001 
	C303.692902,1.000000 307.385834,1.000000 311.539368,0.999999 
z"/>
<path fill="#FC6708" opacity="1.000000" stroke="none" 
	d="
M310.001801,174.833160 
	C311.477753,167.537109 313.050568,160.258987 314.403473,152.940186 
	C315.872620,144.992386 316.988403,136.977997 318.521790,129.043579 
	C321.732574,112.430176 325.106232,95.848190 328.431641,79.257027 
	C332.177582,60.567577 335.948792,41.883198 339.699158,23.194641 
	C341.129517,16.066957 342.532410,8.933763 343.973938,1.401538 
	C347.692902,1.000000 351.385834,1.000000 355.513031,1.403220 
	C351.200623,26.600714 346.520782,51.408031 341.686310,76.185173 
	C337.743042,96.394577 333.607758,116.566475 329.571564,136.757782 
	C327.035004,149.446960 324.524078,162.141281 321.545746,174.905518 
	C317.393799,174.929550 313.697815,174.881348 310.001801,174.833160 
z"/>
<path fill="#FA5504" opacity="1.000000" stroke="none" 
	d="
M310.463196,501.000000 
	C311.771515,490.561859 313.425323,480.102112 315.339325,469.690155 
	C319.174286,448.828278 323.037781,427.970306 327.108002,407.153473 
	C330.061707,392.046814 333.469116,377.029266 336.475586,361.932404 
	C338.188599,353.330261 339.502899,344.648651 341.457642,335.513123 
	C345.946075,335.070618 349.973541,335.117828 353.913483,335.555054 
	C352.210541,344.716980 350.544281,353.479950 348.994049,362.263367 
	C347.435699,371.092346 346.204071,379.983826 344.452118,388.772766 
	C341.475281,403.706451 338.058685,418.552612 335.094666,433.488708 
	C332.128754,448.434235 329.441223,463.435883 326.730072,478.430725 
	C325.373535,485.933350 324.236359,493.475647 323.000000,501.000000 
	C318.975464,501.000000 314.950897,501.000000 310.463196,501.000000 
z"/>
<path fill="#FD7D0E" opacity="1.000000" stroke="none" 
	d="
M234.001373,174.834351 
	C236.113693,163.616180 238.251328,152.402695 240.326614,141.177673 
	C241.230148,136.290512 241.920639,131.363434 242.854675,126.482567 
	C246.218613,108.904282 249.644516,91.337860 253.048035,73.767159 
	C257.693481,49.785046 262.339905,25.803120 266.992920,1.410556 
	C270.692902,1.000000 274.385834,1.000000 278.511688,1.409788 
	C278.047638,6.205978 277.087891,10.580645 276.264282,14.980781 
	C272.362030,35.828072 268.558990,56.694096 264.600616,77.530655 
	C260.911591,96.949417 257.035614,116.332588 253.310364,135.744568 
	C250.812103,148.762802 248.433243,161.803970 245.544922,174.905884 
	C241.393051,174.929367 237.697205,174.881851 234.001373,174.834351 
z"/>
<path fill="#FD8510" opacity="1.000000" stroke="none" 
	d="
M138.458069,501.000000 
	C139.919586,488.750092 141.711044,476.478210 143.804947,464.258148 
	C145.144348,456.441437 146.951065,448.705414 148.511261,440.925781 
	C150.465210,431.182800 152.167511,421.383606 154.370300,411.697784 
	C156.859314,400.753540 159.998413,389.956451 162.453094,379.005310 
	C164.586380,369.488007 166.228607,359.857544 167.950699,350.252472 
	C168.794739,345.544800 169.327377,340.781281 170.460129,335.535522 
	C174.947189,335.074524 178.975067,335.121094 183.002930,335.167664 
	C181.128464,345.581390 179.232178,355.991272 177.387390,366.410278 
	C176.202835,373.100403 175.372345,379.867859 173.854355,386.479248 
	C172.828796,390.945862 170.487320,395.108154 169.437164,399.571869 
	C167.692505,406.987610 166.593918,414.552795 165.071762,422.024170 
	C163.589798,429.298370 161.768463,436.505066 160.363541,443.792938 
	C158.138107,455.337067 156.256134,466.947845 153.994766,478.484528 
	C152.567307,485.766937 150.713821,492.965881 149.025711,500.601135 
	C145.638718,501.000000 142.277420,501.000000 138.458069,501.000000 
z"/>
<path fill="#FA5504" opacity="1.000000" stroke="none" 
	d="
M371.001892,174.833496 
	C373.849640,159.165070 376.581421,143.474487 379.575470,127.834068 
	C383.038208,109.745461 386.822937,91.718559 390.300446,73.632675 
	C394.024048,54.266960 397.535461,34.860523 401.179169,15.479321 
	C402.036530,10.918937 403.053314,6.388534 403.998383,1.422169 
	C407.692902,1.000000 411.385834,1.000000 415.537720,1.423475 
	C415.806213,3.323794 415.697357,4.816573 415.412659,6.275023 
	C412.621521,20.572672 409.742950,34.853466 407.002930,49.160828 
	C403.142944,69.316429 399.539001,89.522285 395.531403,109.648079 
	C391.197693,131.411591 386.525604,153.107712 381.547852,174.905975 
	C377.730347,174.930328 374.366119,174.881912 371.001892,174.833496 
z"/>
<path fill="#FC6A09" opacity="1.000000" stroke="none" 
	d="
M232.460632,501.000000 
	C232.982880,494.289734 233.766327,487.542877 234.988647,480.876495 
	C237.861130,465.210236 240.850937,449.563995 243.961517,433.943176 
	C249.079224,408.242889 254.325317,382.568085 259.527954,356.884735 
	C260.945221,349.888275 262.400665,342.899567 264.376465,335.466858 
	C268.610138,335.073486 272.305939,335.120575 276.001770,335.167633 
	C272.879944,350.628632 269.647797,366.068390 266.665680,381.556305 
	C263.339417,398.831451 260.339447,416.169495 257.009399,433.443878 
	C254.595612,445.965179 251.763229,458.405609 249.328110,470.923065 
	C247.435745,480.650574 245.868408,490.441315 244.078308,500.601990 
	C240.307098,501.000000 236.614182,501.000000 232.460632,501.000000 
z"/>
<path fill="#F94702" opacity="1.000000" stroke="none" 
	d="
M465.539368,0.999998 
	C463.338959,15.122965 460.762360,29.262491 457.996399,43.364880 
	C454.169586,62.876011 450.053772,82.331375 446.344116,101.864243 
	C443.937805,114.534492 442.195953,127.330055 439.855347,140.013916 
	C438.027191,149.920609 435.724548,159.739456 433.662659,169.603577 
	C433.358826,171.056992 433.220490,172.545013 432.546143,174.498276 
	C428.058411,174.931274 424.030090,174.883026 420.001801,174.834778 
	C422.017059,164.742508 423.975891,154.638519 426.068176,144.562241 
	C427.381287,138.238525 429.024078,131.982376 430.294739,125.650909 
	C434.410522,105.142517 438.424561,84.613701 442.474365,64.092064 
	C446.207031,45.177547 449.954376,26.265867 453.634155,7.341064 
	C453.979980,5.562503 453.888092,3.698828 453.999695,1.437335 
	C457.692902,1.000000 461.385834,1.000000 465.539368,0.999998 
z"/>
<path fill="#FA5304" opacity="1.000000" stroke="none" 
	d="
M323.460632,501.000000 
	C324.236359,493.475647 325.373535,485.933350 326.730072,478.430725 
	C329.441223,463.435883 332.128754,448.434235 335.094666,433.488708 
	C338.058685,418.552612 341.475281,403.706451 344.452118,388.772766 
	C346.204071,379.983826 347.435699,371.092346 348.994049,362.263367 
	C350.544281,353.479950 352.210541,344.716980 354.369385,335.483459 
	C358.609222,335.069855 362.305634,335.117889 366.002014,335.165924 
	C363.892273,347.231323 361.969757,359.333099 359.632141,371.354187 
	C355.331635,393.469208 350.781952,415.535706 346.345673,437.624329 
	C343.313782,452.720490 340.195648,467.800446 337.327728,482.927765 
	C336.249512,488.614868 335.768433,494.415131 335.007568,500.581909 
	C331.307098,501.000000 327.614166,501.000000 323.460632,501.000000 
z"/>
<path fill="#FB5E06" opacity="1.000000" stroke="none" 
	d="
M327.001831,335.165283 
	C324.439575,348.321411 321.866058,361.475403 319.317566,374.634186 
	C315.186249,395.965729 311.114197,417.308868 306.936707,438.631348 
	C303.206085,457.672913 299.360168,476.691925 295.588257,495.725433 
	C295.299286,497.183594 295.193817,498.678162 295.001526,500.577881 
	C291.638702,501.000000 288.277435,501.000000 284.458069,501.000000 
	C285.251740,492.987457 286.379517,484.953125 287.783356,476.967316 
	C290.076263,463.923676 292.500397,450.902405 294.957825,437.888489 
	C298.367523,419.831787 301.754150,401.769562 305.348602,383.749207 
	C308.299408,368.955658 311.547150,354.221375 314.634796,339.454895 
	C314.871185,338.324524 314.881378,337.146851 315.454895,335.506958 
	C319.609344,335.070221 323.305603,335.117767 327.001831,335.165283 
z"/>
<path fill="#FD7A0D" opacity="1.000000" stroke="none" 
	d="
M221.001862,335.167267 
	C218.739014,348.050781 216.531036,360.944244 214.198929,373.815186 
	C211.510971,388.650177 208.754486,403.473022 205.948425,418.286133 
	C204.190598,427.565704 202.302780,436.820831 200.444504,446.081146 
	C197.645233,460.030670 194.788651,473.968781 192.027191,487.925720 
	C191.227188,491.969025 190.669113,496.060242 190.000061,500.564758 
	C186.307098,501.000000 182.614182,501.000000 178.467316,500.592468 
	C178.766571,495.779755 179.407318,491.351746 180.293243,486.973389 
	C183.445648,471.394073 186.795975,455.854095 189.853271,440.256470 
	C192.853302,424.951080 195.517075,409.580109 198.456039,394.262390 
	C202.237991,374.551117 206.147095,354.864258 210.455017,335.097015 
	C214.273041,335.073853 217.637451,335.120544 221.001862,335.167267 
z"/>
<path fill="#FB6307" opacity="1.000000" stroke="none" 
	d="
M322.001678,174.833313 
	C324.524078,162.141281 327.035004,149.446960 329.571564,136.757782 
	C333.607758,116.566475 337.743042,96.394577 341.686310,76.185173 
	C346.520782,51.408031 351.200623,26.600714 355.973663,1.403220 
	C359.030609,1.000000 362.061188,1.000000 365.544098,1.428907 
	C364.997437,7.902426 364.083618,13.962602 362.982086,19.988468 
	C360.564392,33.213848 358.146210,46.440468 355.548279,59.631138 
	C353.437134,70.350143 350.936340,80.992691 348.848511,91.715904 
	C347.263275,99.858093 346.224945,108.106613 344.646362,116.250267 
	C340.857666,135.795944 336.894226,155.307739 332.547974,174.905487 
	C328.730286,174.929626 325.365997,174.881470 322.001678,174.833313 
z"/>
<path fill="#FD7A0D" opacity="1.000000" stroke="none" 
	d="
M246.000977,174.834885 
	C248.433243,161.803970 250.812103,148.762802 253.310364,135.744568 
	C257.035614,116.332588 260.911591,96.949417 264.600616,77.530655 
	C268.558990,56.694096 272.362030,35.828072 276.264282,14.980781 
	C277.087891,10.580645 278.047638,6.205978 278.972321,1.409788 
	C282.361298,1.000000 285.722565,1.000000 289.464111,1.396213 
	C286.835449,17.392422 283.874023,33.001762 280.801727,48.589249 
	C278.622925,59.643505 276.197845,70.649590 274.059326,81.711327 
	C271.856720,93.104744 269.975616,104.560501 267.755341,115.950287 
	C265.607635,126.967781 263.148621,137.924240 260.936432,148.929642 
	C259.204346,157.546814 257.640472,166.197815 255.552246,174.905243 
	C252.068756,174.929443 249.034866,174.882156 246.000977,174.834885 
z"/>
<path fill="#FD760C" opacity="1.000000" stroke="none" 
	d="
M256.001862,174.833786 
	C257.640472,166.197815 259.204346,157.546814 260.936432,148.929642 
	C263.148621,137.924240 265.607635,126.967781 267.755341,115.950287 
	C269.975616,104.560501 271.856720,93.104744 274.059326,81.711327 
	C276.197845,70.649590 278.622925,59.643505 280.801727,48.589249 
	C283.874023,33.001762 286.835449,17.392422 289.922180,1.396213 
	C293.030609,1.000000 296.061188,1.000000 299.545898,1.000001 
	C295.914429,22.353840 291.854034,43.712536 287.735962,65.060104 
	C283.872528,85.087883 279.987732,105.111717 276.036774,125.122360 
	C273.340454,138.778442 270.471985,152.400543 267.783539,166.058121 
	C267.274384,168.644608 267.249420,171.326431 266.547974,174.470306 
	C262.730530,174.928818 259.366180,174.881302 256.001862,174.833786 
z"/>
<path fill="#FB6007" opacity="1.000000" stroke="none" 
	d="
M333.001312,174.833206 
	C336.894226,155.307739 340.857666,135.795944 344.646362,116.250267 
	C346.224945,108.106613 347.263275,99.858093 348.848511,91.715904 
	C350.936340,80.992691 353.437134,70.350143 355.548279,59.631138 
	C358.146210,46.440468 360.564392,33.213848 362.982086,19.988468 
	C364.083618,13.962602 364.997437,7.902426 365.998199,1.428907 
	C369.030609,1.000000 372.061188,1.000000 375.545898,1.000001 
	C374.137360,11.429690 372.351929,21.873882 370.396057,32.286060 
	C366.285858,54.166656 362.176270,76.048103 357.890106,97.894615 
	C355.242462,111.389664 352.135895,124.794632 349.483734,138.288849 
	C347.148499,150.170395 345.158356,162.119736 342.559082,174.508621 
	C339.068726,174.929810 336.035004,174.881516 333.001312,174.833206 
z"/>
<path fill="#FA5304" opacity="1.000000" stroke="none" 
	d="
M382.001099,174.833221 
	C386.525604,153.107712 391.197693,131.411591 395.531403,109.648079 
	C399.539001,89.522285 403.142944,69.316429 407.002930,49.160828 
	C409.742950,34.853466 412.621521,20.572672 415.412659,6.275023 
	C415.697357,4.816573 415.806213,3.323794 415.998352,1.423475 
	C418.700012,1.000000 421.400024,1.000000 424.550018,1.000000 
	C423.620300,10.160919 422.513031,19.373112 420.800781,28.471441 
	C417.795654,44.439602 414.346313,60.323586 411.219696,76.269623 
	C407.933685,93.028389 404.755493,109.808807 401.627441,126.597885 
	C398.686432,142.383118 395.872253,158.191986 392.549011,174.484894 
	C388.730865,174.930634 385.365997,174.881927 382.001099,174.833221 
z"/>
<path fill="#FD7D0E" opacity="1.000000" stroke="none" 
	d="
M210.001419,335.166870 
	C206.147095,354.864258 202.237991,374.551117 198.456039,394.262390 
	C195.517075,409.580109 192.853302,424.951080 189.853271,440.256470 
	C186.795975,455.854095 183.445648,471.394073 180.293243,486.973389 
	C179.407318,491.351746 178.766571,495.779755 178.006683,500.592468 
	C174.969406,501.000000 171.938812,501.000000 168.454102,501.000000 
	C169.265823,494.362183 170.517456,487.721649 171.800995,481.087250 
	C173.500458,472.302948 175.221664,463.522827 176.939590,454.742096 
	C178.335388,447.607727 179.803802,440.486877 181.126343,433.338989 
	C183.315125,421.509552 185.271881,409.635651 187.579422,397.829987 
	C191.612991,377.193878 195.838470,356.595245 200.442108,335.503998 
	C203.934265,335.073669 206.967850,335.120270 210.001419,335.166870 
z"/>
<path fill="#FC730B" opacity="1.000000" stroke="none" 
	d="
M247.001709,335.167206 
	C244.923859,347.091492 243.048553,359.055359 240.726410,370.931885 
	C235.729584,396.488037 230.458801,421.990479 225.385239,447.531830 
	C221.898499,465.084778 218.554901,482.666138 215.073669,500.617401 
	C212.299988,501.000000 209.599976,501.000000 206.449982,501.000000 
	C207.256531,495.010834 208.612396,489.040436 209.750031,483.028778 
	C212.581085,468.068451 215.164810,453.059906 218.128403,438.126434 
	C220.767792,424.826538 223.958862,411.635803 226.576874,398.332062 
	C228.625656,387.920776 229.961273,377.369446 231.997284,366.955292 
	C234.031509,356.550140 236.542313,346.238129 239.362823,335.455383 
	C242.254883,335.072723 244.628296,335.119965 247.001709,335.167206 
z"/>
<path fill="#FB6307" opacity="1.000000" stroke="none" 
	d="
M299.001282,335.167480 
	C297.210419,345.953278 295.586060,356.769958 293.591675,367.517975 
	C290.149902,386.066376 286.472137,404.570953 282.904602,423.096069 
	C279.553223,440.498749 276.220428,457.904999 272.871399,475.308105 
	C271.275757,483.599823 269.661469,491.888000 268.027832,500.588867 
	C265.958344,501.000000 263.916656,501.000000 261.437500,501.000000 
	C262.814789,491.412201 264.605042,481.819672 266.451263,472.237946 
	C268.263641,462.832001 270.111145,453.432648 271.983337,444.038422 
	C273.919891,434.321198 275.960114,424.624359 277.854065,414.898956 
	C280.097107,403.381134 282.210541,391.838196 284.419586,380.313660 
	C287.254425,365.524292 290.128540,350.742462 293.417969,335.490723 
	C295.567230,335.071899 297.284241,335.119690 299.001282,335.167480 
z"/>
<path fill="#FFFFFF" opacity="1.000000" stroke="none" 
	d="
M299.463318,335.096191 
	C297.284241,335.119690 295.567230,335.071899 293.425842,335.094727 
	C287.643463,335.118988 282.285431,335.072540 276.464569,335.096863 
	C272.305939,335.120575 268.610138,335.073486 264.458252,335.096497 
	C258.643982,335.119904 253.285721,335.073181 247.464600,335.096863 
	C244.628296,335.119965 242.254883,335.072723 239.441528,335.095337 
	C233.310532,335.119202 227.619431,335.073242 221.465103,335.097290 
	C217.637451,335.120544 214.273041,335.073853 210.455017,335.097046 
	C206.967850,335.120270 203.934265,335.073669 200.450989,335.096802 
	C194.643784,335.120789 189.286301,335.075104 183.465881,335.098541 
	C178.975067,335.121094 174.947189,335.074524 170.460602,335.096985 
	C164.976883,335.120148 159.951889,335.074310 154.464539,335.096985 
	C147.977890,335.120117 141.953583,335.074738 135.465637,335.098450 
	C129.644531,335.122040 124.287094,335.076569 118.466522,335.098694 
	C111.645264,335.120514 105.287125,335.074799 98.465012,335.097443 
	C92.976257,335.120819 87.951469,335.075806 82.464233,335.098785 
	C76.976791,335.121368 71.951797,335.075958 66.464272,335.098022 
	C62.208595,335.165527 58.415447,335.165527 53.968460,335.165527 
	C53.968460,324.755249 53.968460,314.842621 53.900795,304.465698 
	C53.877464,303.554291 53.921799,303.107117 54.155937,301.967896 
	C61.897427,301.129242 69.449112,300.982605 77.462692,300.903381 
	C82.616745,300.925415 87.308891,300.880005 92.459946,300.902527 
	C96.946709,300.925201 100.974556,300.879944 105.465469,300.903015 
	C111.287392,300.924866 116.646248,300.878448 122.468979,300.899719 
	C129.622269,300.922638 136.311676,300.877777 143.457367,300.901794 
	C147.610321,300.924194 151.306992,300.877716 155.467560,300.900208 
	C163.288116,300.924103 170.644806,300.879028 178.455231,300.902893 
	C182.273911,300.925079 185.638809,300.878296 189.466583,300.900696 
	C195.286621,300.924316 200.643768,300.878784 206.454590,300.902954 
	C210.272842,300.926239 213.637451,300.879791 217.465271,300.903320 
	C223.619247,300.927429 229.310043,300.881622 235.457047,300.905426 
	C239.609421,300.928436 243.305588,300.881836 247.463196,300.905151 
	C252.618164,300.927521 257.311676,300.879974 262.468628,300.901611 
	C268.955261,300.924347 274.978516,300.877960 281.465179,300.902405 
	C287.952789,300.927002 293.976990,300.880768 300.461182,300.905212 
	C305.281921,300.928558 309.642639,300.881226 314.465393,300.904358 
	C319.952423,300.927643 324.977509,300.880493 330.465912,300.904419 
	C336.954071,300.927826 342.978851,300.880127 349.467285,300.903259 
	C356.954803,300.927002 363.978729,300.879913 371.466187,300.904358 
	C378.620911,300.928375 385.312103,300.880890 392.466919,300.904663 
	C400.287903,300.928558 407.645264,300.881195 415.464508,300.905640 
	C420.951508,300.929413 425.976624,300.881409 431.001770,300.833374 
	C435.694427,300.882751 440.387085,300.932129 445.540863,300.907379 
	C452.026398,300.882690 458.050812,300.932129 464.538452,300.907471 
	C468.138733,300.833405 471.275818,300.833405 474.704895,300.833405 
	C474.704895,312.303986 474.704895,323.363220 474.704895,335.023102 
	C467.116760,335.023102 459.523315,335.023102 451.466309,335.095032 
	C443.311554,335.118835 435.620453,335.070740 427.465698,335.094696 
	C421.643829,335.118561 416.285614,335.070374 410.464722,335.093933 
	C400.311676,335.118896 390.621338,335.072144 380.467438,335.096863 
	C375.643188,335.120026 371.282440,335.071655 366.461853,335.094604 
	C362.305634,335.117889 358.609222,335.069855 354.456940,335.093445 
	C349.973541,335.117828 345.946075,335.070618 341.460144,335.094604 
	C336.641693,335.118347 332.281647,335.070892 327.461731,335.094360 
	C323.305603,335.117767 319.609344,335.070221 315.457153,335.093781 
	C309.975891,335.118225 304.950623,335.071594 299.463318,335.096191 
z"/>
<path fill="#FFFFFF" opacity="1.000000" stroke="none" 
	d="
M381.547852,174.905975 
	C385.365997,174.881927 388.730865,174.930634 392.549011,174.905869 
	C401.693085,174.882446 410.383881,174.932526 419.538239,174.908691 
	C424.030090,174.883026 428.058411,174.931274 432.545044,174.905457 
	C438.694153,174.880737 444.384888,174.930099 450.538574,174.905716 
	C451.667328,175.704636 452.905853,176.572342 452.913452,177.450699 
	C453.034912,191.466888 452.998993,205.484436 452.998993,220.021652 
	C450.737610,220.021652 448.816345,220.021652 445.986572,220.020569 
	C440.052887,220.068542 435.027771,220.117584 429.539001,220.092651 
	C422.051331,220.067780 415.027283,220.116882 407.539551,220.091995 
	C399.718140,220.067764 392.360382,220.117508 384.539185,220.093658 
	C377.718353,220.069122 371.360962,220.118164 364.540100,220.093430 
	C357.718567,220.068848 351.360535,220.118042 344.541229,220.094238 
	C339.387634,220.069489 334.695343,220.117737 329.541687,220.092987 
	C324.387329,220.068527 319.694305,220.117035 314.538177,220.093307 
	C308.383881,220.070267 302.692688,220.119431 296.538086,220.096161 
	C290.051300,220.071533 284.027893,220.119370 277.542389,220.093964 
	C272.054230,220.068771 267.028229,220.116791 261.546143,220.093384 
	C257.393677,220.069504 253.697311,220.117035 249.537750,220.093185 
	C243.383759,220.070129 237.692932,220.118469 231.552429,220.095734 
	C228.068817,220.072021 225.034897,220.119370 221.537720,220.095734 
	C215.384094,220.072632 209.693710,220.120483 203.549713,220.096863 
	C199.731247,220.072403 196.366409,220.119400 192.537598,220.095444 
	C184.717117,220.072617 177.360580,220.120743 169.547729,220.097977 
	C165.394638,220.073837 161.697876,220.120590 157.537170,220.097137 
	C150.383926,220.073898 143.694626,220.120911 136.542053,220.096802 
	C130.719757,220.072372 125.360725,220.119049 119.541428,220.096222 
	C114.721146,220.072891 110.361130,220.119095 105.540924,220.095764 
	C100.720482,220.072281 96.360214,220.118286 91.535881,220.094910 
	C83.381592,220.072617 75.691383,220.119720 68.001167,220.166809 
	C64.637100,220.121429 61.273037,220.076035 57.455009,220.098175 
	C54.535892,220.165695 52.070736,220.165695 48.968586,220.165695 
	C48.968586,211.104660 48.968586,202.517227 48.901009,193.465454 
	C48.889355,188.275970 48.868393,183.547791 49.051949,178.827576 
	C49.101631,177.550095 49.770195,176.296692 50.577881,174.932770 
	C55.028572,174.879166 59.056084,174.925034 63.542496,174.902069 
	C68.693611,174.879333 73.385826,174.925430 78.539810,174.902451 
	C83.029381,174.879410 87.057167,174.925461 91.543869,174.901810 
	C101.693237,174.879898 111.383705,174.927673 121.538300,174.905045 
	C130.693344,174.881653 139.384262,174.928665 148.539337,174.904724 
	C157.026611,174.881088 165.049698,174.928406 173.536896,174.905762 
	C178.693527,174.882751 183.386047,174.929733 188.540131,174.906036 
	C193.029343,174.882004 197.057007,174.928650 201.543335,174.904510 
	C207.027328,174.881195 212.052643,174.928680 217.540222,174.904800 
	C223.027267,174.880981 228.052048,174.928513 233.539093,174.905182 
	C237.697205,174.881851 241.393051,174.929367 245.544937,174.905884 
	C249.034866,174.882156 252.068756,174.929443 255.552246,174.905243 
	C259.366180,174.881302 262.730530,174.928818 266.548340,174.904724 
	C270.697845,174.880920 274.393829,174.928711 278.545837,174.904724 
	C284.027252,174.881378 289.052673,174.929810 294.540222,174.905975 
	C299.694611,174.881729 304.386871,174.929718 309.540466,174.905426 
	C313.697815,174.881348 317.393799,174.929550 321.545746,174.905533 
	C325.365997,174.881470 328.730286,174.929626 332.547974,174.905487 
	C336.035004,174.881516 339.068726,174.929810 342.551880,174.905823 
	C346.697662,174.882095 350.393951,174.930634 354.546143,174.906403 
	C360.027344,174.882263 365.052612,174.930908 370.539917,174.906525 
	C374.366119,174.881912 377.730347,174.930328 381.547852,174.905975 
z"/>
<path fill="#F94201" opacity="1.000000" stroke="none" 
	d="
M430.002625,220.166641 
	C435.027771,220.117584 440.052887,220.068542 445.539917,220.093124 
	C444.178284,229.741806 442.410889,239.327972 440.518433,248.889420 
	C437.441437,264.435791 434.263794,279.962280 431.189331,295.509155 
	C430.903748,296.953217 431.053528,298.483398 431.001465,300.403503 
	C425.976624,300.881409 420.951508,300.929413 415.464233,300.484375 
	C415.768616,294.594360 416.302063,289.152039 417.342590,283.808441 
	C421.476593,262.577759 425.768951,241.377914 430.002625,220.166641 
z"/>
<path fill="#FDA418" opacity="1.000000" stroke="none" 
	d="
M67.974083,220.547638 
	C75.691383,220.119720 83.381592,220.072617 91.450592,220.479218 
	C87.599480,242.168716 83.301323,263.391296 79.187523,284.649567 
	C78.154800,289.986267 77.713760,295.437408 77.000793,300.835968 
	C69.449112,300.982605 61.897427,301.129242 54.089424,301.635834 
	C53.464813,300.449768 52.562080,298.811493 52.810440,297.371826 
	C55.453800,282.048737 58.121292,266.726105 61.111160,251.467804 
	C63.116383,241.234467 65.649872,231.104614 67.974083,220.547638 
z"/>
<path fill="#FD8911" opacity="1.000000" stroke="none" 
	d="
M170.004059,220.168884 
	C177.360580,220.120743 184.717117,220.072617 192.536865,220.513916 
	C192.881454,222.486633 192.910202,223.999283 192.621292,225.448639 
	C189.845673,239.373184 186.943161,253.272736 184.225784,267.208466 
	C182.044266,278.396149 180.068527,289.623962 178.001480,300.833954 
	C170.644806,300.879028 163.288116,300.924103 155.466934,300.477722 
	C155.135239,298.170685 155.058548,296.310272 155.435684,294.546936 
	C157.506226,284.865906 159.904724,275.250580 161.781342,265.533630 
	C164.695282,250.445465 167.279861,235.293686 170.004059,220.168884 
z"/>
<path fill="#F94702" opacity="1.000000" stroke="none" 
	d="
M429.539001,220.092651 
	C425.768951,241.377914 421.476593,262.577759 417.342590,283.808441 
	C416.302063,289.152039 415.768616,294.594360 415.002380,300.412598 
	C407.645264,300.881195 400.287903,300.928558 392.494385,300.517456 
	C395.299438,284.643738 398.642273,269.248962 401.747650,253.806427 
	C403.996002,242.625748 405.929352,231.381744 408.003174,220.165985 
	C415.027283,220.116882 422.051331,220.067780 429.539001,220.092651 
z"/>
<path fill="#FA4E03" opacity="1.000000" stroke="none" 
	d="
M407.539520,220.092010 
	C405.929352,231.381744 403.996002,242.625748 401.747650,253.806427 
	C398.642273,269.248962 395.299438,284.643738 392.030762,300.446167 
	C385.312103,300.880890 378.620911,300.928375 371.466003,300.480286 
	C372.005249,293.942657 372.915436,287.883392 374.031067,281.862213 
	C376.116669,270.606079 378.424591,259.390472 380.444550,248.122955 
	C382.110382,238.830627 383.493988,229.487732 385.002655,220.167236 
	C392.360382,220.117508 399.718140,220.067764 407.539520,220.092010 
z"/>
<path fill="#FD9113" opacity="1.000000" stroke="none" 
	d="
M137.005325,220.167923 
	C143.694626,220.120911 150.383926,220.073898 157.536606,220.518097 
	C157.796143,222.810883 157.711685,224.635437 157.370468,226.410645 
	C152.601227,251.222015 147.796875,276.026642 143.001099,300.832916 
	C136.311676,300.877777 129.622269,300.922638 122.468338,300.476746 
	C122.163826,298.343719 122.192528,296.676147 122.503448,295.062927 
	C127.315826,270.093750 132.164810,245.131668 137.005325,220.167923 
z"/>
<path fill="#FA5304" opacity="1.000000" stroke="none" 
	d="
M384.539185,220.093658 
	C383.493988,229.487732 382.110382,238.830627 380.444550,248.122955 
	C378.424591,259.390472 376.116669,270.606079 374.031067,281.862213 
	C372.915436,287.883392 372.005249,293.942657 371.002502,300.408752 
	C363.978729,300.879913 356.954803,300.927002 349.473969,300.507568 
	C354.345886,273.416443 359.674744,246.791824 365.003601,220.167206 
	C371.360962,220.118164 377.718353,220.069122 384.539185,220.093658 
z"/>
<path fill="#FB5905" opacity="1.000000" stroke="none" 
	d="
M364.540100,220.093430 
	C359.674744,246.791824 354.345886,273.416443 349.010376,300.436768 
	C342.978851,300.880127 336.954071,300.927826 330.474060,300.496002 
	C331.036896,294.666595 332.090668,289.323181 333.064911,283.965332 
	C334.717957,274.874634 336.255432,265.762543 337.960754,256.681824 
	C340.248596,244.499130 342.649933,232.337753 345.002533,220.167236 
	C351.360535,220.118042 357.718567,220.068848 364.540100,220.093430 
z"/>
<path fill="#FC6A09" opacity="1.000000" stroke="none" 
	d="
M278.004517,220.167206 
	C284.027893,220.119370 290.051300,220.071533 296.529999,220.496002 
	C291.657440,247.589386 286.329590,274.210449 281.001740,300.831543 
	C274.978516,300.877960 268.955261,300.924347 262.548828,300.530090 
	C263.452911,294.272522 264.866791,288.480286 266.004608,282.634277 
	C270.055389,261.821808 274.012146,240.991043 278.004517,220.167206 
z"/>
<path fill="#FC6708" opacity="1.000000" stroke="none" 
	d="
M281.465179,300.902405 
	C286.329590,274.210449 291.657440,247.589386 296.993408,220.568451 
	C302.692688,220.119431 308.383881,220.070267 314.536194,220.500549 
	C314.237366,225.693848 313.594604,230.430145 312.697479,235.117752 
	C308.503754,257.030670 304.239929,278.930206 300.001160,300.834534 
	C293.976990,300.880768 287.952789,300.927002 281.465179,300.902405 
z"/>
<path fill="#FD7A0D" opacity="1.000000" stroke="none" 
	d="
M232.002121,220.166809 
	C237.692932,220.118469 243.383759,220.070129 249.506241,220.495010 
	C248.985764,225.993881 248.040665,231.020874 247.080154,236.044922 
	C244.193558,251.143463 241.270737,266.235138 238.424911,281.341370 
	C237.203568,287.824463 236.137436,294.336792 235.000824,300.835846 
	C229.310043,300.881622 223.619247,300.927429 217.473572,300.494141 
	C219.469620,285.848785 221.774307,271.655212 224.415375,257.524506 
	C226.749573,245.035538 229.458588,232.616623 232.002121,220.166809 
z"/>
<path fill="#FD800F" opacity="1.000000" stroke="none" 
	d="
M204.003326,220.168335 
	C209.693710,220.120483 215.384094,220.072632 221.529663,220.495010 
	C216.656891,247.587906 211.328903,274.210571 206.000916,300.833252 
	C200.643768,300.878784 195.286621,300.924316 189.496826,300.500488 
	C189.566681,296.931152 189.977188,293.812897 190.588364,290.734497 
	C192.678375,280.207214 194.947235,269.714478 196.944931,259.170105 
	C199.404129,246.189667 201.659729,233.170670 204.003326,220.168335 
z"/>
<path fill="#FC730B" opacity="1.000000" stroke="none" 
	d="
M277.542389,220.093964 
	C274.012146,240.991043 270.055389,261.821808 266.004608,282.634277 
	C264.866791,288.480286 263.452911,294.272522 262.085419,300.460938 
	C257.311676,300.879974 252.618164,300.927521 247.462708,300.471985 
	C247.122421,297.823029 246.994324,295.627930 247.405594,293.539001 
	C250.467346,277.987488 253.654449,262.460724 256.764130,246.918549 
	C258.546936,238.008011 260.258545,229.083206 262.002197,220.164825 
	C267.028229,220.116791 272.054230,220.068771 277.542389,220.093964 
z"/>
<path fill="#FD9915" opacity="1.000000" stroke="none" 
	d="
M136.542053,220.096802 
	C132.164810,245.131668 127.315826,270.093750 122.503448,295.062927 
	C122.192528,296.676147 122.163826,298.343719 122.004471,300.408997 
	C116.646248,300.878448 111.287392,300.924866 105.544785,300.536987 
	C106.545303,292.653351 107.808380,285.179016 109.342682,277.760742 
	C111.557663,267.051422 114.195541,256.425568 116.224907,245.683212 
	C117.819771,237.240860 118.766853,228.676117 120.001694,220.165741 
	C125.360725,220.119049 130.719757,220.072372 136.542053,220.096802 
z"/>
<path fill="#FB5E06" opacity="1.000000" stroke="none" 
	d="
M344.541229,220.094238 
	C342.649933,232.337753 340.248596,244.499130 337.960754,256.681824 
	C336.255432,265.762543 334.717957,274.874634 333.064911,283.965332 
	C332.090668,289.323181 331.036896,294.666595 330.010712,300.424927 
	C324.977509,300.880493 319.952423,300.927643 314.544678,300.536499 
	C317.772827,281.910217 321.386414,263.722809 324.993317,245.534073 
	C326.669922,237.079361 328.333557,228.622086 330.003052,220.165970 
	C334.695343,220.117737 339.387634,220.069489 344.541229,220.094238 
z"/>
<path fill="#FDA017" opacity="1.000000" stroke="none" 
	d="
M77.462692,300.903381 
	C77.713760,295.437408 78.154800,289.986267 79.187523,284.649567 
	C83.301323,263.391296 87.599480,242.168716 91.914658,220.548599 
	C96.360214,220.118286 100.720482,220.072281 105.540527,220.528290 
	C104.156624,232.388290 102.440002,243.768723 100.438087,255.098740 
	C97.740807,270.364349 94.823769,285.591156 92.001045,300.834595 
	C87.308891,300.880005 82.616745,300.925415 77.462692,300.903381 
z"/>
<path fill="#FB6307" opacity="1.000000" stroke="none" 
	d="
M329.541687,220.092987 
	C328.333557,228.622086 326.669922,237.079361 324.993317,245.534073 
	C321.386414,263.722809 317.772827,281.910217 314.082703,300.466003 
	C309.642639,300.881226 305.281921,300.928558 300.461182,300.905212 
	C304.239929,278.930206 308.503754,257.030670 312.697479,235.117752 
	C313.594604,230.430145 314.237366,225.693848 314.999329,220.572754 
	C319.694305,220.117035 324.387329,220.068527 329.541687,220.092987 
z"/>
<path fill="#FD9C16" opacity="1.000000" stroke="none" 
	d="
M92.459946,300.902527 
	C94.823769,285.591156 97.740807,270.364349 100.438087,255.098740 
	C102.440002,243.768723 104.156624,232.388290 106.000717,220.597809 
	C110.361130,220.119095 114.721146,220.072891 119.541428,220.096222 
	C118.766853,228.676117 117.819771,237.240860 116.224907,245.683212 
	C114.195541,256.425568 111.557663,267.051422 109.342682,277.760742 
	C107.808380,285.179016 106.545303,292.653351 105.081726,300.468689 
	C100.974556,300.879944 96.946709,300.925201 92.459946,300.902527 
z"/>
<path fill="#FD760C" opacity="1.000000" stroke="none" 
	d="
M261.546143,220.093384 
	C260.258545,229.083206 258.546936,238.008011 256.764130,246.918549 
	C253.654449,262.460724 250.467346,277.987488 247.405594,293.539001 
	C246.994324,295.627930 247.122421,297.823029 247.001251,300.402100 
	C243.305588,300.881836 239.609421,300.928436 235.457031,300.905426 
	C236.137436,294.336792 237.203568,287.824463 238.424911,281.341370 
	C241.270737,266.235138 244.193558,251.143463 247.080154,236.044922 
	C248.040665,231.020874 248.985764,225.993881 249.969421,220.566406 
	C253.697311,220.117035 257.393677,220.069504 261.546143,220.093384 
z"/>
<path fill="#FD8E12" opacity="1.000000" stroke="none" 
	d="
M143.457367,300.901794 
	C147.796875,276.026642 152.601227,251.222015 157.370468,226.410645 
	C157.711685,224.635437 157.796143,222.810883 158.000549,220.588318 
	C161.697876,220.120590 165.394638,220.073837 169.547729,220.097992 
	C167.279861,235.293686 164.695282,250.445465 161.781342,265.533630 
	C159.904724,275.250580 157.506226,284.865906 155.435684,294.546936 
	C155.058548,296.310272 155.135239,298.170685 155.003052,300.408752 
	C151.306992,300.877716 147.610321,300.924194 143.457367,300.901794 
z"/>
<path fill="#FD8510" opacity="1.000000" stroke="none" 
	d="
M203.549713,220.096863 
	C201.659729,233.170670 199.404129,246.189667 196.944931,259.170105 
	C194.947235,269.714478 192.678375,280.207214 190.588364,290.734497 
	C189.977188,293.812897 189.566681,296.931152 189.033966,300.431335 
	C185.638809,300.878296 182.273911,300.925079 178.455231,300.902893 
	C180.068527,289.623962 182.044266,278.396149 184.225784,267.208466 
	C186.943161,253.272736 189.845673,239.373184 192.621292,225.448639 
	C192.910202,223.999283 192.881454,222.486633 193.000824,220.584869 
	C196.366409,220.119400 199.731247,220.072403 203.549713,220.096863 
z"/>
<path fill="#FD7D0E" opacity="1.000000" stroke="none" 
	d="
M206.454575,300.902954 
	C211.328903,274.210571 216.656891,247.587906 221.992920,220.565979 
	C225.034897,220.119370 228.068817,220.072021 231.552429,220.095734 
	C229.458588,232.616623 226.749573,245.035538 224.415375,257.524506 
	C221.774307,271.655212 219.469620,285.848785 217.010376,300.424194 
	C213.637451,300.879791 210.272842,300.926239 206.454575,300.902954 
z"/>
</svg>